# xmcd
#
# Track frame offsets:
#	150
#	17038
#	37526
#	55262
#	74749
#	86591
#	103722
#	120965
#	143180
#	161352
#
# Disc length: 2320 seconds
#
# Revision: 0
# Processed by: cddbd v1.5PL3 Copyright (c) Steve Scherf et al.
# Submitted via: dBpowerAMP V4.0
#
DISCID=79090e0a
DTITLE=OS NONATOS - mentes iluminadas
DYEAR=2004
DGENRE=violeiro
TTITLE0=DEUS
TTITLE1=O PERFUME DA FLÔR DA CARIDADE
TTITLE2=ABORTO É ASSASSINATO COM NOME DIFERENTE
TTITLE3=MATERIALISTA E ESPIRITUALISTA
TTITLE4=CANÇÃO PORTO SEGURO
TTITLE5=PESSOAS DE LUZ
TTITLE6=FAMÍLIA
TTITLE7=OUTRA VIDA NOS ESPERA NO PLANO ESPIRITUAL
TTITLE8=A GENTE GOSTARIA
TTITLE9=CANÇÃO TRIBUTO A CHICO
EXTD=
EXTT0=
EXTT1=
EXTT2=
EXTT3=
EXTT4=
EXTT5=
EXTT6=
EXTT7=
EXTT8=
EXTT9=
PLAYORDER=
